<svg width="24" height="24" viewBox="0 0 24 24" fill="none" xmlns="http://www.w3.org/2000/svg">
<path d="M13.0435 5.04348C13.0435 4.76673 12.9335 4.50132 12.7379 4.30563C12.5422 4.10994 12.2767 4 12 4C11.7233 4 11.4578 4.10994 11.2622 4.30563C11.0665 4.50132 10.9565 4.76673 10.9565 5.04348V10.9565H5.04348C4.76673 10.9565 4.50132 11.0665 4.30563 11.2622C4.10994 11.4578 4 11.7233 4 12C4 12.2767 4.10994 12.5422 4.30563 12.7379C4.50132 12.9335 4.76673 13.0435 5.04348 13.0435H10.9565V18.9565C10.9565 19.2333 11.0665 19.4987 11.2622 19.6944C11.4578 19.8901 11.7233 20 12 20C12.2767 20 12.5422 19.8901 12.7379 19.6944C12.9335 19.4987 13.0435 19.2333 13.0435 18.9565V13.0435H18.9565C19.2333 13.0435 19.4987 12.9335 19.6944 12.7379C19.8901 12.5422 20 12.2767 20 12C20 11.7233 19.8901 11.4578 19.6944 11.2622C19.4987 11.0665 19.2333 10.9565 18.9565 10.9565H13.0435V5.04348Z" fill="white"/>
</svg>
