<svg width="18" height="17" viewBox="0 0 18 17" fill="none" xmlns="http://www.w3.org/2000/svg">
<path d="M13.6579 4.84871C13.3889 4.57964 13.0696 4.3662 12.7182 4.22058C12.3667 4.07495 11.99 4 11.6096 4C11.2292 4 10.8525 4.07495 10.501 4.22058C10.1495 4.3662 9.83023 4.57964 9.56129 4.84871L9.00315 5.40685L8.445 4.84871C7.90176 4.30547 7.16497 4.00028 6.39671 4.00028C5.62846 4.00028 4.89167 4.30547 4.34843 4.84871C3.80519 5.39195 3.5 6.12874 3.5 6.897C3.5 7.66525 3.80519 8.40204 4.34843 8.94528L4.90657 9.50343L9.00315 13.6L13.0997 9.50343L13.6579 8.94528C13.9269 8.67634 14.1404 8.35703 14.286 8.00557C14.4316 7.65412 14.5066 7.27742 14.5066 6.897C14.5066 6.51657 14.4316 6.13987 14.286 5.78842C14.1404 5.43697 13.9269 5.11765 13.6579 4.84871Z" fill="white"/>
</svg>
