<svg width="24" height="24" viewBox="0 0 24 24" fill="none" xmlns="http://www.w3.org/2000/svg">
<path fill-rule="evenodd" clip-rule="evenodd" d="M14.2134 5.99282C15.5372 4.66906 17.6834 4.66906 19.0072 5.99282C20.3309 7.31658 20.3309 9.46282 19.0072 10.7866L15.493 14.3007C15.2096 14.5841 14.7501 14.5841 14.4666 14.3007C14.1832 14.0172 14.1832 13.5577 14.4666 13.2742L16.4727 11.2681C15.9734 11.0534 15.3918 10.7092 14.8412 10.1587C14.2908 9.60824 13.9466 9.0266 13.7318 8.52728L8.83953 13.4196C8.43646 13.8227 8.27833 13.9826 8.14401 14.1548C7.97814 14.3674 7.83588 14.5977 7.71985 14.8412C7.62586 15.0384 7.55358 15.2512 7.3733 15.792L6.95535 17.0459L7.95414 18.0447L9.20804 17.6267C9.74881 17.4464 9.96162 17.3741 10.1588 17.2802C10.4023 17.1641 10.6326 17.0219 10.8453 16.856C11.0174 16.7217 11.1773 16.5635 11.5804 16.1605C11.8638 15.877 12.3234 15.877 12.6068 16.1605C12.8903 16.4439 12.8903 16.9035 12.6068 17.187L12.5735 17.2203C12.2142 17.5796 11.9891 17.8047 11.738 18.0006C11.4422 18.2313 11.122 18.4292 10.7833 18.5906C10.4958 18.7276 10.1938 18.8283 9.71175 18.9889L6.90091 19.9259C6.38196 20.0988 5.80983 19.9638 5.42303 19.577C5.03623 19.1902 4.90117 18.6181 5.07415 18.0991L6.01109 15.2883C6.17175 14.8062 6.27239 14.5042 6.40944 14.2167C6.57085 13.878 6.76867 13.5578 6.99942 13.262C7.19533 13.0108 7.42043 12.7858 7.77976 12.4265L14.2134 5.99282ZM14.8754 7.38374C14.8974 7.47651 14.9281 7.58703 14.9708 7.71031C15.1095 8.11005 15.372 8.63649 15.8677 9.13225C16.3635 9.628 16.89 9.89044 17.2896 10.0291C17.4129 10.0719 17.5234 10.1026 17.6162 10.1246L17.9807 9.76014C18.7376 9.00326 18.7376 7.77613 17.9807 7.01927C17.2238 6.2624 15.9967 6.2624 15.2399 7.01927L14.8754 7.38374Z" fill="white"/>
</svg>
