<svg width="121" height="127" viewBox="0 0 121 127" fill="none" xmlns="http://www.w3.org/2000/svg">
<path d="M21.2373 6.86H24.2823V14.42H28.7623V16.905H24.2823V24.815H21.2373V6.86ZM5.27731 26.25H24.2823V37.24H5.27731V26.25ZM21.3073 28.63H8.21731V34.79H21.3073V28.63ZM3.2823 22.925L1.1123 21.245L6.1173 14.735C7.2023 13.405 7.4823 12.25 7.4823 11.235V7.77H10.4223V11.235C10.4223 12.285 10.6673 13.335 11.7873 14.77L16.7923 21.245L14.6223 22.925L9.61731 16.45L8.95231 15.54C8.77731 15.855 8.53231 16.17 8.28731 16.485L3.2823 22.925ZM54.6312 7.035H56.6962V26.46H54.6312V17.395H50.0812V22.855H48.0512V7.665H50.0812V15.61H54.6312V7.035ZM46.2312 10.15V11.9H43.0462C44.4812 13.02 45.5662 14.665 45.5662 16.59C45.5662 20.265 42.7312 22.89 38.7762 22.89C34.9612 22.89 32.2662 20.265 32.2662 16.59C32.2662 14.665 33.3162 13.02 34.6812 11.9H31.4962V10.15H37.7962V7.07H39.9312V10.15H46.2312ZM34.2962 16.59C34.2962 19.25 36.1862 21.14 38.7762 21.14C41.5412 21.14 43.5012 19.25 43.5012 16.59C43.5012 13.86 41.5412 11.9 38.7762 11.9C36.1862 11.9 34.2962 13.86 34.2962 16.59ZM46.2662 37.765C42.1362 37.765 39.2662 35.105 39.2662 31.29C39.2662 27.51 42.1362 24.815 46.2662 24.815C50.3962 24.815 53.3012 27.51 53.3012 31.29C53.3012 35.105 50.3962 37.765 46.2662 37.765ZM46.2662 35.91C49.1712 35.91 51.2712 33.985 51.2712 31.29C51.2712 28.595 49.1712 26.705 46.2662 26.705C43.3612 26.705 41.2962 28.595 41.2962 31.29C41.2962 33.985 43.3612 35.91 46.2662 35.91ZM84.3208 7H86.4558V36.435H84.3208V7ZM63.5658 28.315L62.0258 27.195L67.7308 19.635C69.2008 17.675 69.5158 15.89 69.5158 14.21V9.135H71.4408V14.21C71.4408 15.89 71.7558 17.675 73.2258 19.635L78.9308 27.195L77.3908 28.315L71.6858 20.755C71.1608 20.055 70.7758 19.39 70.4958 18.69C70.1808 19.39 69.7958 20.055 69.2708 20.755L63.5658 28.315ZM92.3804 30.66H105.085V24.92H97.0704V15.855H113.625V10.955H97.0004V9.17H115.34V17.605H98.7504V23.17H116.04V24.92H107.185V30.66H119.96V32.445H92.3804V30.66ZM54.0069 50.86H56.9119V70.215H54.0069V61.605H50.2969V67.31H47.4269V51.455H50.2969V59.12H54.0069V50.86ZM45.8869 53.94V56.46H43.3319C44.4519 57.615 45.2569 59.12 45.2569 60.835C45.2569 64.755 42.4219 67.52 38.4319 67.52C34.5469 67.52 31.7819 64.755 31.7819 60.835C31.7819 59.12 32.5519 57.615 33.6369 56.46H31.0819V53.94H36.9969V50.86H39.9719V53.94H45.8869ZM34.5469 60.835C34.5469 63.39 36.1569 65.14 38.3969 65.14C40.8119 65.14 42.4919 63.39 42.4919 60.835C42.4919 58.245 40.8119 56.46 38.3969 56.46C36.1569 56.46 34.5469 58.245 34.5469 60.835ZM46.5519 82.15C42.1769 82.15 39.0969 79.42 39.0969 75.605C39.0969 71.755 42.1769 69.06 46.5519 69.06C50.9969 69.06 54.0769 71.755 54.0769 75.605C54.0769 79.42 50.9969 82.15 46.5519 82.15ZM46.5519 79.595C49.2469 79.595 51.1719 77.985 51.1719 75.605C51.1719 73.225 49.2469 71.615 46.5519 71.615C43.8919 71.615 42.0369 73.225 42.0369 75.605C42.0369 77.985 43.8919 79.595 46.5519 79.595ZM61.7808 66.155H74.4858V62.13H66.2958V51.735H68.3958V55.48H82.7458V51.735H84.8808V62.13H76.5858V66.155H89.2558V67.94H61.7808V66.155ZM65.9808 70.88H85.0558V81.45H82.9558V72.665H65.9808V70.88ZM68.3958 57.195V60.38H82.7458V57.195H68.3958ZM113.73 51.07H115.865V61.325H120.555V63.145H115.865V72.035H113.73V51.07ZM97.9804 71.055H100.08V78.895H116.635V80.715H97.9804V71.055ZM110.195 54.885V56.635H105.96C107.5 57.825 108.69 59.54 108.69 61.605C108.69 65.42 105.785 68.115 101.69 68.115C97.7704 68.115 95.0054 65.42 95.0054 61.605C95.0054 59.54 96.1604 57.825 97.6304 56.635H93.4654V54.885H100.78V51.035H102.915V54.885H110.195ZM96.9654 61.605C96.9654 64.405 98.9604 66.4 101.725 66.4C104.63 66.4 106.73 64.405 106.73 61.605C106.73 58.77 104.63 56.705 101.725 56.705C98.9604 56.705 96.9654 58.77 96.9654 61.605ZM83.6965 94.79H86.7065V124.645H83.6965V94.79ZM63.9915 116.91L61.7515 115.23L67.4565 107.565C68.8565 105.71 69.1365 104.275 69.1365 102.665V96.89H72.0415V102.665C72.0415 104.275 72.3215 105.71 73.7215 107.565L79.4265 115.23L77.1865 116.91L71.4815 109.245C71.1315 108.79 70.8515 108.3 70.6065 107.88C70.3265 108.3 70.0465 108.79 69.6965 109.245L63.9915 116.91ZM113.73 115.895V95.035H115.865V104.065H120.555V105.885H115.865V115.895H113.73ZM97.5604 115.125H99.6954V122.895H117.335V124.715H97.5604V115.125ZM93.2554 109.7C99.5904 108.475 104.28 105.99 104.28 98.675H93.9204V96.925H106.275V98.675C106.275 106.865 100.675 110.33 93.6754 111.625L93.2554 109.7Z" fill="white"/>
</svg>
