<svg width="108" height="85" viewBox="0 0 108 85" fill="none" xmlns="http://www.w3.org/2000/svg">
<path d="M22.5516 0.949999L13.0016 24H9.60156L0.00156252 0.949999H3.95156L11.3016 19.1L18.6016 0.949999H22.5516ZM34.8668 24.25C28.4168 24.25 23.8668 19.4 23.8668 12.6C23.8668 5.8 28.4168 0.949999 34.8668 0.949999C41.9668 0.949999 44.1168 6.65 44.3168 7.25C45.7168 10.95 45.2168 14.25 45.2168 14.25H27.6168C28.2168 18.2 31.2168 21 34.8668 21C39.8168 21 41.5668 17.8 41.8668 17.35L44.6668 18.95C43.5168 21.5 40.2668 24.25 34.8668 24.25ZM41.6668 11C41.2668 7.15 39.4668 4.2 34.8668 4.2C31.1668 4.2 28.2168 6.95 27.6168 11.05L41.6668 11ZM49.8363 24V0.949999H53.4363V5C54.9863 2.4 58.1863 0.599999 61.4863 0.699999V4.25C57.2363 4.15 53.4363 7.8 53.4363 12.15V24H49.8363ZM66.9555 16.9C68.3555 19.8 71.2055 21 73.0055 21C75.9555 21 78.1555 19.7 78.1555 17.55C78.1555 15.45 75.3555 14.65 72.6555 13.75C69.5055 12.65 65.0555 11.35 65.0555 6.95C65.0555 3.15 68.6055 0.749998 73.1055 0.749998C75.7555 0.749998 80.2055 2.25 81.2555 6.35L77.9555 7.4C77.2555 4.6 74.6055 4 73.1055 4C70.5555 4 68.6555 5.1 68.6555 6.95C68.6555 9.05 71.2055 9.75 74.1055 10.7C77.4555 11.85 81.7555 13.15 81.7555 17.55C81.7555 21.6 77.9555 24.25 73.0055 24.25C69.5055 24.25 65.9555 22.35 64.0055 18.7L66.9555 16.9ZM97.0523 24.25C90.6023 24.25 86.0523 19.4 86.0523 12.6C86.0523 5.8 90.6023 0.949999 97.0523 0.949999C104.152 0.949999 106.302 6.65 106.502 7.25C107.902 10.95 107.402 14.25 107.402 14.25H89.8023C90.4023 18.2 93.4023 21 97.0523 21C102.002 21 103.752 17.8 104.052 17.35L106.852 18.95C105.702 21.5 102.452 24.25 97.0523 24.25ZM103.852 11C103.452 7.15 101.652 4.2 97.0523 4.2C93.3523 4.2 90.4023 6.95 89.8023 11.05L103.852 11ZM8.54238 66.9C9.94238 69.8 12.7924 71 14.5924 71C17.5424 71 19.7424 69.7 19.7424 67.55C19.7424 65.45 16.9424 64.65 14.2424 63.75C11.0924 62.65 6.64238 61.35 6.64238 56.95C6.64238 53.15 10.1924 50.75 14.6924 50.75C17.3424 50.75 21.7924 52.25 22.8424 56.35L19.5424 57.4C18.8424 54.6 16.1924 54 14.6924 54C12.1424 54 10.2424 55.1 10.2424 56.95C10.2424 59.05 12.7924 59.75 15.6924 60.7C19.0424 61.85 23.3424 63.15 23.3424 67.55C23.3424 71.6 19.5424 74.25 14.5924 74.25C11.0924 74.25 7.54238 72.35 5.59238 68.7L8.54238 66.9ZM44.3893 60.45C44.3893 56.75 42.0893 54.2 38.7893 54.2C34.8893 54.2 32.1893 57.2 32.1893 60.45V74H28.5893V50.95H32.1893V54.4C33.7893 52.35 36.4893 50.95 38.7893 50.95C44.1893 50.95 47.9893 54.75 47.9893 60.15V74H44.3893V60.45ZM63.7123 74.35C57.3123 74.35 52.7623 69.5 52.7623 62.7C52.7623 55.9 57.3123 51 63.7123 51C66.2623 51 69.1123 52.4 71.1623 55.3V50.95H74.7623V74H71.1623V70C69.0623 73.15 66.3123 74.35 63.7123 74.35ZM63.7623 71.1C67.6623 71.1 71.1623 67.6 71.2123 62.7C71.1623 57.85 67.6623 54.25 63.7623 54.25C59.4123 54.25 56.3623 57.75 56.3623 62.7C56.3623 67.6 59.4123 71.1 63.7623 71.1ZM91.3572 71.1C95.7572 71.1 98.8072 67.6 98.8072 62.6C98.8072 57.7 95.7572 54.15 91.3572 54.15C87.3572 54.15 83.9572 58.05 83.9572 62.6C83.9572 67.25 87.3572 71.1 91.3572 71.1ZM91.4072 50.95C97.8572 50.95 102.407 55.8 102.407 62.6C102.407 69.5 97.8572 74.35 91.4072 74.35C88.7572 74.35 85.5572 72.7 83.9072 70.15V84.7H80.3072V50.95H83.9072V55.1C85.5572 52.35 88.8072 50.95 91.4072 50.95Z" fill="white"/>
</svg>
