<svg width="18" height="17" viewBox="0 0 18 17" fill="none" xmlns="http://www.w3.org/2000/svg">
<path d="M13.5641 4.84871C13.2952 4.57964 12.9759 4.3662 12.6244 4.22058C12.273 4.07495 11.8963 4 11.5158 4C11.1354 4 10.7587 4.07495 10.4072 4.22058C10.0558 4.3662 9.73648 4.57964 9.46754 4.84871L8.9094 5.40685L8.35125 4.84871C7.80801 4.30547 7.07122 4.00028 6.30296 4.00028C5.53471 4.00028 4.79792 4.30547 4.25468 4.84871C3.71144 5.39195 3.40625 6.12874 3.40625 6.897C3.40625 7.66525 3.71144 8.40204 4.25468 8.94528L4.81282 9.50343L8.9094 13.6L13.006 9.50343L13.5641 8.94528C13.8332 8.67634 14.0466 8.35703 14.1922 8.00557C14.3379 7.65412 14.4128 7.27742 14.4128 6.897C14.4128 6.51657 14.3379 6.13987 14.1922 5.78842C14.0466 5.43697 13.8332 5.11765 13.5641 4.84871Z" stroke="white" stroke-linecap="round" stroke-linejoin="round"/>
</svg>
